<svg xmlns="http://www.w3.org/2000/svg" viewBox="0 0 1440 320"><path fill="#29caff" fill-opacity="1" d="M0,192L26.7,176C53.3,160,107,128,160,128C213.3,128,267,160,320,186.7C373.3,213,427,235,480,218.7C533.3,203,587,149,640,144C693.3,139,747,181,800,170.7C853.3,160,907,96,960,85.3C1013.3,75,1067,117,1120,154.7C1173.3,192,1227,224,1280,224C1333.3,224,1387,192,1413,176L1440,160L1440,320L1413.3,320C1386.7,320,1333,320,1280,320C1226.7,320,1173,320,1120,320C1066.7,320,1013,320,960,320C906.7,320,853,320,800,320C746.7,320,693,320,640,320C586.7,320,533,320,480,320C426.7,320,373,320,320,320C266.7,320,213,320,160,320C106.7,320,53,320,27,320L0,320Z"></path></svg>